<svg xmlns="http://www.w3.org/2000/svg" viewBox="0 0 180 158.77" role="img" aria-label="Daily District"><g transform="translate(40 0)"><defs><clipPath id="src18"><circle cx="50" cy="50" r="44.5"></circle></clipPath></defs><g clip-path="url(#src18)"><g fill="none" stroke="currentColor" stroke-width="9" stroke-linecap="round" stroke-linejoin="round"><circle cx="50" cy="50" r="40"></circle><path d="M50 10 C 84.3 10 84.3 50 50 50 C 15.7 50 15.7 90 50 90"></path><line x1="50" y1="10" x2="50" y2="90"></line></g><path fill="currentColor" stroke="currentColor" stroke-width="0.3" d="M 65.43 13.56 L 66.07 13.79 L 66.71 14.05 L 67.34 14.33 L 67.97 14.63 L 68.59 14.95 L 69.2 15.29 L 69.81 15.65 L 70.4 16.04 L 70.99 16.45 L 71.56 16.88 L 72.12 17.33 L 72.67 17.81 L 73.21 18.31 L 73.73 18.83 L 74.23 19.37 L 74.72 19.94 L 75.18 20.52 L 75.63 21.13 L 76.06 21.76 L 76.46 22.41 L 76.84 23.07 L 77.2 23.76 L 77.53 24.46 L 77.84 25.18 L 78.12 25.91 L 78.38 26.66 L 78.6 27.42 L 78.8 28.2 L 78.96 28.99 L 79.1 29.78 L 79.2 30.59 L 79.28 31.4 L 79.32 32.22 L 79.33 33.05 L 79.31 33.88 L 79.25 34.71 L 79.17 35.54 L 79.05 36.37 L 78.9 37.2 L 78.71 38.03 L 78.84 37.72 L 78.98 37.42 L 79.12 37.12 L 79.28 36.82 L 79.44 36.53 L 79.6 36.24 L 79.79 35.96 L 79.98 35.69 L 80.19 35.44 L 80.43 35.2 L 80.7 35.01 L 81.01 34.87 L 81.34 34.84 L 81.66 34.93 L 81.94 35.11 L 82.18 35.34 L 82.39 35.6 L 82.57 35.88 L 82.74 36.17 L 82.89 36.46 L 83.02 36.77 L 83.15 37.08 L 83.27 37.39 L 83.38 37.7 L 83.49 38.02 L 83.59 38.34 L 83.69 38.65 L 83.78 38.98 L 83.87 39.3 L 83.95 39.62 L 85.85 38 L 87.73 36.35 L 89.59 34.69 L 91.43 32.99 L 93.23 31.27 L 95.01 29.51 L 96.74 27.71 L 98.41 25.85 L 100.02 23.94 L 101.52 21.94 L 102.87 19.84 L 103.95 17.6 L 104.53 15.17 L 104.05 12.76 L 102.29 11.02 L 99.99 10.09 L 97.54 9.62 L 95.05 9.42 L 92.55 9.4 L 90.05 9.5 L 87.56 9.69 L 85.08 9.96 L 82.6 10.28 L 80.13 10.65 L 77.67 11.07 L 75.21 11.51 L 72.76 11.99 L 70.31 12.49 L 67.87 13.01 L 65.43 13.56 Z"></path><path fill="currentColor" stroke="currentColor" stroke-width="0.3" d="M 34.57 86.44 L 33.93 86.21 L 33.29 85.95 L 32.66 85.67 L 32.03 85.37 L 31.41 85.05 L 30.80 84.71 L 30.19 84.35 L 29.60 83.96 L 29.01 83.55 L 28.44 83.12 L 27.88 82.67 L 27.33 82.19 L 26.79 81.69 L 26.27 81.17 L 25.77 80.63 L 25.28 80.06 L 24.82 79.48 L 24.37 78.87 L 23.94 78.24 L 23.54 77.59 L 23.16 76.93 L 22.80 76.24 L 22.47 75.54 L 22.16 74.82 L 21.88 74.09 L 21.62 73.34 L 21.40 72.58 L 21.20 71.80 L 21.04 71.01 L 20.90 70.22 L 20.80 69.41 L 20.72 68.60 L 20.68 67.78 L 20.67 66.95 L 20.69 66.12 L 20.75 65.29 L 20.83 64.46 L 20.95 63.63 L 21.10 62.80 L 21.29 61.97 L 21.16 62.28 L 21.02 62.58 L 20.88 62.88 L 20.72 63.18 L 20.56 63.47 L 20.40 63.76 L 20.21 64.04 L 20.02 64.31 L 19.81 64.56 L 19.57 64.80 L 19.30 64.99 L 18.99 65.13 L 18.66 65.16 L 18.34 65.07 L 18.06 64.89 L 17.82 64.66 L 17.61 64.40 L 17.43 64.12 L 17.26 63.83 L 17.11 63.54 L 16.98 63.23 L 16.85 62.92 L 16.73 62.61 L 16.62 62.30 L 16.51 61.98 L 16.41 61.66 L 16.31 61.35 L 16.22 61.02 L 16.13 60.70 L 16.05 60.38 L 14.15 62.00 L 12.27 63.65 L 10.41 65.31 L 8.57 67.01 L 6.77 68.73 L 4.99 70.49 L 3.26 72.29 L 1.59 74.15 L -0.02 76.06 L -1.52 78.06 L -2.87 80.16 L -3.95 82.40 L -4.53 84.83 L -4.05 87.24 L -2.29 88.98 L 0.01 89.91 L 2.46 90.38 L 4.95 90.58 L 7.45 90.60 L 9.95 90.50 L 12.44 90.31 L 14.92 90.04 L 17.40 89.72 L 19.87 89.35 L 22.33 88.93 L 24.79 88.49 L 27.24 88.01 L 29.69 87.51 L 32.13 86.99 L 34.57 86.44 Z"></path></g></g><g transform="translate(0 120) scale(0.6923)"><path fill="currentColor" d="M 2.684,44 Q 2.464,44 2.288,43.868 2.156,43.692 2.156,43.472 V 13.728 q 0,-0.22 0.132,-0.352 Q 2.464,13.2 2.684,13.2 h 11.22 q 3.432,0 6.072,1.188 2.64,1.188 4.092,3.388 1.452,2.2 1.452,5.06 v 11.528 q 0,2.86 -1.452,5.06 -1.452,2.2 -4.092,3.388 -2.64,1.188 -6.072,1.188 Z M 9.46,37.532 q 0,0.22 0.22,0.22 h 4.532 q 1.76,0 2.86,-1.232 1.1,-1.276 1.144,-3.388 v -9.064 q 0,-2.112 -1.144,-3.344 -1.1,-1.276 -2.904,-1.276 H 9.68 q -0.22,0 -0.22,0.22 z M 38.000026,20.9 q 2.948,0 5.324,1.012 2.376,0.968 3.74,2.728 1.364,1.716 1.364,3.828 v 15.004 q 0,0.22 -0.176,0.396 -0.132,0.132 -0.352,0.132 h -6.248 q -0.22,0 -0.396,-0.132 -0.132,-0.176 -0.132,-0.396 v -1.54 q 0,-0.176 -0.088,-0.176 -0.088,-0.044 -0.176,0.132 -1.672,2.464 -5.72,2.464 -3.52,0 -5.632,-1.628 -2.068,-1.672 -2.068,-4.884 0,-3.388 2.332,-5.236 2.376,-1.848 6.864,-1.848 h 4.268 q 0.22,0 0.22,-0.22 V 29.7 q 0,-1.188 -0.792,-1.848 -0.792,-0.704 -2.2,-0.704 -1.056,0 -1.848,0.396 -0.748,0.396 -0.968,1.012 -0.22,0.484 -0.616,0.44 l -6.336,-0.836 q -0.528,-0.088 -0.528,-0.396 0.176,-1.936 1.496,-3.476 1.364,-1.584 3.608,-2.464 2.288,-0.924 5.06,-0.924 z m -0.704,18.216 q 1.672,0 2.728,-0.836 1.1,-0.88 1.1,-2.288 v -1.056 q 0,-0.22 -0.22,-0.22 h -2.64 q -1.672,0 -2.596,0.572 -0.88,0.572 -0.88,1.716 0,0.968 0.66,1.54 0.66,0.572 1.848,0.572 z M 55.320019,19.228 q -1.672,0 -2.772,-1.056 -1.056,-1.1 -1.056,-2.772 0,-1.716 1.056,-2.772 1.1,-1.056 2.772,-1.056 1.672,0 2.728,1.056 1.1,1.056 1.1,2.772 0,1.628 -1.1,2.728 -1.056,1.1 -2.728,1.1 z M 52.152019,44 q -0.22,0 -0.396,-0.132 -0.132,-0.176 -0.132,-0.396 V 21.78 q 0,-0.22 0.132,-0.352 0.176,-0.176 0.396,-0.176 h 6.248 q 0.22,0 0.352,0.176 0.176,0.132 0.176,0.352 v 21.692 q 0,0.22 -0.176,0.396 -0.132,0.132 -0.352,0.132 z m 10.587987,0 q -0.22,0 -0.396,-0.132 -0.132,-0.176 -0.132,-0.396 V 13.728 q 0,-0.22 0.132,-0.352 0.176,-0.176 0.396,-0.176 h 6.248 q 0.22,0 0.352,0.176 0.176,0.132 0.176,0.352 v 29.744 q 0,0.22 -0.176,0.396 -0.132,0.132 -0.352,0.132 z m 10.148024,8.756 q -0.132,0 -0.22,-0.176 -0.088,-0.132 -0.088,-0.352 V 47.3 q 0,-0.528 0.484,-0.528 2.816,0 4.048,-0.528 1.232,-0.528 1.496,-2.112 0.044,-0.088 0,-0.264 l -7.084,-22.044 q -0.044,-0.088 -0.044,-0.22 0,-0.396 0.484,-0.396 h 6.644 q 0.44,0 0.572,0.44 l 3.036,13.024 q 0.044,0.176 0.132,0.176 0.088,0 0.132,-0.176 l 3.036,-13.024 q 0.132,-0.44 0.572,-0.44 h 6.512 q 0.264,0 0.396,0.176 0.132,0.132 0.044,0.44 l -7.436,22.616 q -1.1,3.3 -2.332,4.972 -1.188,1.716 -3.52,2.508 -2.288,0.836 -6.556,0.836 z M 104.18408,44 q -0.22,0 -0.396,-0.132 -0.132,-0.176 -0.132,-0.396 V 13.728 q 0,-0.22 0.132,-0.352 0.176,-0.176 0.396,-0.176 h 11.22 q 3.432,0 6.072,1.188 2.64,1.188 4.092,3.388 1.452,2.2 1.452,5.06 v 11.528 q 0,2.86 -1.452,5.06 -1.452,2.2 -4.092,3.388 -2.64,1.188 -6.072,1.188 z m 6.776,-6.468 q 0,0.22 0.22,0.22 h 4.532 q 1.76,0 2.86,-1.232 1.1,-1.276 1.144,-3.388 v -9.064 q 0,-2.112 -1.144,-3.344 -1.1,-1.276 -2.904,-1.276 h -4.488 q -0.22,0 -0.22,0.22 z m 22.864,-18.304 q -1.672,0 -2.772,-1.056 -1.056,-1.1 -1.056,-2.772 0,-1.716 1.056,-2.772 1.1,-1.056 2.772,-1.056 1.672,0 2.728,1.056 1.1,1.056 1.1,2.772 0,1.628 -1.1,2.728 -1.056,1.1 -2.728,1.1 z M 130.65608,44 q -0.22,0 -0.396,-0.132 -0.132,-0.176 -0.132,-0.396 V 21.78 q 0,-0.22 0.132,-0.352 0.176,-0.176 0.396,-0.176 h 6.248 q 0.22,0 0.352,0.176 0.176,0.132 0.176,0.352 v 21.692 q 0,0.22 -0.176,0.396 -0.132,0.132 -0.352,0.132 z m 19.73999,0.352 q -3.124,0 -5.456,-0.836 -2.332,-0.88 -3.608,-2.42 -1.232,-1.584 -1.232,-3.608 v -0.484 q 0,-0.22 0.132,-0.352 0.176,-0.176 0.396,-0.176 h 5.94 q 0.22,0 0.352,0.176 0.176,0.132 0.176,0.352 0,0.836 0.924,1.408 0.924,0.528 2.332,0.528 1.232,0 1.936,-0.396 0.748,-0.44 0.748,-1.144 0,-0.704 -0.792,-1.012 -0.748,-0.352 -2.464,-0.66 -2.772,-0.528 -4.488,-1.276 -2.244,-0.924 -3.564,-2.288 -1.32,-1.408 -1.32,-3.828 0,-3.432 2.64,-5.412 2.684,-2.024 7.04,-2.024 2.948,0 5.148,0.968 2.244,0.924 3.476,2.64 1.232,1.716 1.232,3.96 0,0.22 -0.176,0.396 -0.132,0.132 -0.352,0.132 h -5.764 q -0.22,0 -0.396,-0.132 -0.132,-0.176 -0.132,-0.396 0,-0.836 -0.792,-1.364 -0.792,-0.528 -2.156,-0.528 -1.232,0 -2.024,0.44 -0.748,0.396 -0.748,1.144 0,0.748 0.836,1.1 0.836,0.308 2.816,0.704 2.552,0.528 3.564,0.836 2.728,0.88 4.224,2.376 1.54,1.496 1.54,4.004 0,3.432 -2.728,5.324 -2.684,1.848 -7.26,1.848 z m 26.25195,-17.776 q 0,0.22 -0.176,0.396 -0.132,0.132 -0.352,0.132 h -4.004 q -0.22,0 -0.22,0.22 v 8.008 q 0,2.508 2.024,2.508 h 1.628 q 0.22,0 0.352,0.176 0.176,0.132 0.176,0.352 v 5.104 q 0,0.484 -0.528,0.572 -2.112,0.088 -3.08,0.088 -3.828,0 -5.676,-1.188 -1.848,-1.232 -1.892,-4.62 v -11 q 0,-0.22 -0.22,-0.22 h -2.508 q -0.22,0 -0.396,-0.132 -0.132,-0.176 -0.132,-0.396 V 21.78 q 0,-0.22 0.132,-0.352 0.176,-0.176 0.396,-0.176 h 2.508 q 0.22,0 0.22,-0.22 v -5.324 q 0,-0.22 0.132,-0.352 0.176,-0.176 0.396,-0.176 h 5.94 q 0.22,0 0.352,0.176 0.176,0.132 0.176,0.352 v 5.324 q 0,0.22 0.22,0.22 h 4.004 q 0.22,0 0.352,0.176 0.176,0.132 0.176,0.352 z m 14.548,-5.632 q 1.584,0 2.464,0.572 0.352,0.22 0.264,0.66 l -1.012,6.116 q -0.044,0.528 -0.616,0.308 -0.792,-0.176 -1.496,-0.176 -0.748,0 -1.144,0.088 -1.364,0.176 -2.332,1.056 -0.924,0.88 -0.924,2.332 v 11.572 q 0,0.22 -0.176,0.396 -0.132,0.132 -0.352,0.132 h -6.248 q -0.22,0 -0.396,-0.132 -0.132,-0.176 -0.132,-0.396 V 21.78 q 0,-0.22 0.132,-0.352 0.176,-0.176 0.396,-0.176 h 6.248 q 0.22,0 0.352,0.176 0.176,0.132 0.176,0.352 v 1.408 q 0,0.132 0.088,0.176 0.088,0.044 0.132,-0.088 1.76,-2.332 4.576,-2.332 z m 8.34397,-1.716 q -1.672,0 -2.772,-1.056 -1.056,-1.1 -1.056,-2.772 0,-1.716 1.056,-2.772 1.1,-1.056 2.772,-1.056 1.672,0 2.728,1.056 1.1,1.056 1.1,2.772 0,1.628 -1.1,2.728 -1.056,1.1 -2.728,1.1 z M 196.37199,44 q -0.22,0 -0.396,-0.132 -0.132,-0.176 -0.132,-0.396 V 21.78 q 0,-0.22 0.132,-0.352 0.176,-0.176 0.396,-0.176 h 6.248 q 0.22,0 0.352,0.176 0.176,0.132 0.176,0.352 v 21.692 q 0,0.22 -0.176,0.396 -0.132,0.132 -0.352,0.132 z m 20.53198,0.352 q -3.608,0 -6.336,-1.804 -2.684,-1.804 -3.828,-4.972 -0.836,-2.112 -0.836,-5.06 0,-2.948 0.836,-5.06 1.1,-3.08 3.828,-4.796 2.728,-1.76 6.336,-1.76 3.652,0 6.424,1.804 2.772,1.804 3.74,4.576 0.308,0.792 0.396,1.716 0,0.484 -0.484,0.572 l -6.116,0.924 h -0.088 q -0.396,0 -0.528,-0.44 l -0.088,-0.396 q -0.088,-0.352 -0.176,-0.616 -0.396,-0.836 -1.232,-1.364 -0.792,-0.528 -1.892,-0.528 -2.332,0 -3.08,2.068 -0.484,1.232 -0.484,3.344 0,1.892 0.44,3.3 0.836,2.244 3.124,2.244 1.144,0 1.98,-0.572 0.836,-0.616 1.188,-1.716 0.044,-0.088 0.044,-0.264 0.044,-0.044 0.044,-0.176 0.132,-0.528 0.616,-0.44 l 6.16,0.968 q 0.44,0.088 0.44,0.484 0,0.66 -0.264,1.452 -1.056,3.08 -3.828,4.796 -2.728,1.716 -6.336,1.716 z m 27.00002,-17.776 q 0,0.22 -0.176,0.396 -0.132,0.132 -0.352,0.132 h -4.004 q -0.22,0 -0.22,0.22 v 8.008 q 0,2.508 2.024,2.508 h 1.628 q 0.22,0 0.352,0.176 0.176,0.132 0.176,0.352 v 5.104 q 0,0.484 -0.528,0.572 -2.112,0.088 -3.08,0.088 -3.828,0 -5.676,-1.188 -1.848,-1.232 -1.892,-4.62 v -11 q 0,-0.22 -0.22,-0.22 h -2.508 q -0.22,0 -0.396,-0.132 -0.132,-0.176 -0.132,-0.396 V 21.78 q 0,-0.22 0.132,-0.352 0.176,-0.176 0.396,-0.176 h 2.508 q 0.22,0 0.22,-0.22 v -5.324 q 0,-0.22 0.132,-0.352 0.176,-0.176 0.396,-0.176 h 5.94 q 0.22,0 0.352,0.176 0.176,0.132 0.176,0.352 v 5.324 q 0,0.22 0.22,0.22 h 4.004 q 0.22,0 0.352,0.176 0.176,0.132 0.176,0.352 z"></path></g></svg>
